<?xml version="1.0" standalone="no"?>
<!DOCTYPE svg PUBLIC "-//W3C//DTD SVG 20010904//EN"
 "http://www.w3.org/TR/2001/REC-SVG-20010904/DTD/svg10.dtd">
<svg version="1.0" xmlns="http://www.w3.org/2000/svg"
 width="100.000000pt" height="100.000000pt" viewBox="0 0 100.000000 100.000000"
 preserveAspectRatio="xMidYMid meet">
<metadata>
Created by potrace 1.14, written by Peter Selinger 2001-2017
</metadata>
<g transform="translate(0.000000,100.000000) scale(0.100000,-0.100000)"
fill="#000000" stroke="none">
<path d="M125 843 c-11 -2 -31 -6 -43 -9 l-24 -5 3 -312 c2 -172 5 -318 7
-325 3 -10 77 -11 356 -7 416 7 501 10 515 20 15 9 6 614 -10 630 -10 10 -758
18 -804 8z m99 -46 c7 17 8 17 17 1 12 -22 29 -23 29 -3 0 24 28 18 32 -7 2
-12 9 -23 17 -26 10 -3 12 2 7 22 -5 19 -3 26 8 26 7 0 16 -9 19 -20 3 -11 10
-20 17 -20 7 0 9 8 5 21 -7 20 -4 20 163 18 160 -2 169 -3 165 -20 -7 -25 4
-24 29 4 14 16 18 17 14 5 -8 -26 8 -30 27 -7 17 19 37 26 37 11 0 -4 -5 -13
-11 -19 -7 -7 -7 -13 -1 -17 5 -3 17 3 27 14 10 11 31 20 47 20 l28 0 0 -104
0 -104 -30 -11 c-16 -5 -30 -15 -30 -20 0 -13 2 -13 35 -1 17 7 24 7 20 0 -3
-6 -12 -10 -20 -10 -8 0 -17 -5 -21 -11 -4 -7 4 -10 22 -7 25 3 29 0 29 -22 0
-16 -6 -25 -15 -25 -8 0 -15 -4 -15 -10 0 -5 7 -10 15 -10 12 0 15 -20 16
-113 1 -61 1 -112 0 -113 0 -1 -69 -3 -153 -6 l-152 -4 -7 25 c-8 33 -24 34
-24 1 0 -24 -2 -25 -71 -25 -41 0 -68 4 -64 9 3 5 1 12 -4 16 -5 3 -14 -3 -20
-12 -9 -16 -12 -16 -20 -3 -9 13 -12 12 -24 -4 -13 -18 -15 -18 -24 -2 -9 17
-11 17 -26 1 -16 -15 -21 -13 -18 7 2 14 -19 9 -25 -5 -3 -8 -11 -14 -18 -14
-8 0 -12 6 -9 14 3 7 1 13 -5 13 -5 0 -13 -8 -17 -17 -6 -17 -8 -17 -21 2 -14
19 -16 19 -25 2 -6 -10 -22 -17 -39 -17 -34 0 -39 16 -12 36 16 13 16 13 0 14
-22 0 -23 16 -2 24 8 3 12 10 9 16 -4 6 -11 8 -16 5 -5 -4 -9 1 -9 9 0 9 9 16
20 16 27 0 25 18 -2 22 -23 3 -23 4 -26 221 l-3 217 30 0 c21 0 32 -6 36 -20
10 -31 28 -24 20 7 -6 27 -6 27 13 10 19 -17 20 -17 26 0z"/>
<path d="M300 697 c-20 -10 -25 -20 -25 -52 0 -34 4 -41 27 -49 59 -21 103 49
58 94 -23 23 -27 24 -60 7z m58 -50 c-7 -46 -68 -48 -68 -2 0 17 7 28 23 34
27 11 49 -5 45 -32z"/>
<path d="M440 660 c0 -5 5 -10 10 -10 6 0 10 5 10 10 0 6 -4 10 -10 10 -5 0
-10 -4 -10 -10z"/>
<path d="M520 660 c0 -5 5 -10 10 -10 6 0 10 5 10 10 0 6 -4 10 -10 10 -5 0
-10 -4 -10 -10z"/>
<path d="M545 561 l-47 -81 -39 30 -38 31 -55 -85 c-51 -79 -58 -86 -88 -87
-18 0 -42 -4 -52 -8 -18 -7 -18 -8 -3 -14 9 -3 23 -4 30 -1 8 3 121 7 253 9
131 2 253 6 269 8 17 2 36 5 43 5 28 4 10 23 -19 20 -30 -3 -35 2 -106 112
-41 63 -80 121 -88 129 -11 11 -20 1 -60 -68z m79 -15 c-5 -14 -2 -18 9 -13
18 7 39 -35 30 -60 -5 -13 -2 -15 13 -10 18 7 18 6 2 -7 -26 -20 -22 -29 10
-21 22 5 25 4 15 -6 -19 -19 -16 -28 6 -22 18 5 39 -13 27 -24 -3 -3 -64 -7
-136 -9 -98 -2 -130 0 -127 9 2 7 11 11 21 9 19 -3 21 9 4 28 -11 12 -10 12 5
1 22 -17 32 -9 17 16 -9 15 -4 31 32 95 43 77 43 77 60 55 10 -12 15 -30 12
-41z m-157 -68 l21 -20 -21 -36 c-11 -21 -22 -39 -24 -42 -5 -5 -103 -7 -103
-2 0 2 10 17 21 34 13 18 27 27 36 23 12 -4 14 0 10 16 -7 25 12 60 28 52 5
-3 20 -15 32 -25z"/>
<path d="M480 610 c0 -5 5 -10 10 -10 6 0 10 5 10 10 0 6 -4 10 -10 10 -5 0
-10 -4 -10 -10z"/>
</g>
</svg>
